<?xml version="1.0" standalone="no"?>
<!DOCTYPE svg PUBLIC "-//W3C//DTD SVG 20010904//EN"
 "http://www.w3.org/TR/2001/REC-SVG-20010904/DTD/svg10.dtd">
<svg version="1.0" xmlns="http://www.w3.org/2000/svg"
 width="684.000000pt" height="684.000000pt" viewBox="0 0 684.000000 684.000000"
 preserveAspectRatio="xMidYMid meet">
<metadata>
Created by potrace 1.14, written by Peter Selinger 2001-2017
</metadata>
<g transform="translate(0.000000,684.000000) scale(0.100000,-0.100000)"
fill="#000000" stroke="none">
<path d="M3420 5346 l0 -646 58 -1 c56 0 104 -5 146 -13 12 -3 44 -9 71 -15
144 -29 303 -97 445 -190 102 -67 276 -238 342 -337 137 -206 225 -471 224
-674 l-1 -55 -450 -1 c-515 0 -503 1 -555 -80 -33 -53 -39 -104 -16 -157 7
-18 89 -134 181 -258 93 -123 214 -285 269 -359 56 -74 103 -137 106 -140 3
-3 43 -57 90 -120 47 -63 87 -117 90 -120 3 -3 44 -57 90 -120 47 -63 90 -122
97 -130 7 -8 127 -169 268 -357 170 -227 268 -349 292 -364 60 -37 150 -28
205 21 9 8 188 245 398 525 210 281 390 521 400 535 10 14 78 104 150 200 72
96 136 182 143 190 107 135 360 486 366 508 23 79 -13 168 -83 204 -40 21 -52
22 -388 23 -190 0 -349 2 -351 5 -3 3 -8 62 -11 132 -4 69 -8 135 -10 145 -2
10 -7 45 -11 78 -9 73 -50 270 -64 308 -6 15 -9 27 -6 27 4 0 -64 203 -93 275
-24 60 -101 221 -140 290 -144 260 -388 551 -617 734 -49 40 -97 78 -105 84
-28 23 -185 124 -255 164 -260 150 -617 274 -890 308 -27 4 -75 10 -106 14
-31 4 -107 9 -168 10 l-111 3 0 -646z m540 148 c292 -72 604 -234 850 -441
230 -194 404 -418 540 -698 107 -218 183 -473 206 -690 4 -38 8 -79 10 -90 1
-11 3 -148 3 -305 l1 -285 278 0 c152 1 282 -1 289 -3 8 -3 -349 -494 -460
-632 -7 -9 -104 -138 -216 -288 -112 -149 -205 -272 -207 -272 -4 0 -894 1185
-894 1191 0 2 174 4 388 4 l387 0 0 280 c-1 340 -6 400 -52 580 -56 221 -163
440 -306 625 -76 99 -252 267 -357 342 -118 85 -322 188 -460 233 l-105 34 -3
221 -2 220 27 -6 c16 -3 53 -12 83 -20z"/>
<path d="M1551 5639 c-18 -4 -45 -16 -60 -26 -21 -15 -136 -162 -303 -385 -9
-13 -270 -360 -579 -773 -309 -412 -571 -765 -582 -782 -24 -41 -25 -119 -2
-167 9 -19 35 -47 57 -63 l41 -28 355 -3 c196 -1 357 -4 359 -6 2 -2 6 -50 8
-107 3 -57 10 -144 16 -194 11 -88 13 -103 24 -155 2 -14 7 -38 10 -55 6 -39
41 -173 65 -250 202 -656 674 -1215 1285 -1525 178 -91 419 -183 536 -205 11
-2 28 -6 37 -9 20 -6 50 -12 152 -31 112 -20 136 -23 240 -31 150 -10 201 -11
207 -1 5 8 8 1171 4 1270 -1 14 -11 17 -63 17 -131 0 -326 48 -477 116 -338
154 -609 475 -701 830 -28 111 -36 161 -45 277 l-4 57 57 0 c31 1 228 1 437 1
235 0 395 4 420 10 44 12 89 49 111 91 18 35 18 115 0 150 -27 51 -1445 1937
-1468 1952 -33 22 -98 33 -137 25z m270 -907 c123 -163 227 -301 231 -307 5
-5 30 -39 57 -75 26 -36 122 -164 213 -286 l166 -221 -377 -1 c-207 0 -383 -1
-391 -1 -14 -1 -16 -37 -14 -298 1 -164 4 -307 7 -318 3 -11 8 -45 12 -75 13
-105 66 -293 114 -405 51 -120 171 -320 253 -420 18 -22 73 -81 123 -130 190
-189 396 -318 653 -405 l122 -42 1 -37 c2 -125 -1 -395 -5 -399 -3 -2 -51 8
-108 23 -449 117 -863 388 -1138 743 -33 42 -65 83 -70 90 -33 39 -130 203
-180 307 -53 108 -157 385 -144 385 2 0 0 8 -5 18 -5 9 -11 31 -14 47 -3 17
-10 53 -16 82 -6 29 -13 74 -16 100 -4 26 -9 59 -12 73 -3 14 -7 166 -8 339
-2 189 -7 316 -13 320 -6 3 -134 5 -286 5 -152 -1 -276 2 -276 6 0 7 135 192
165 227 5 6 170 225 365 487 195 261 357 473 361 470 4 -2 108 -138 230 -302z"/>
</g>
</svg>
